<mxfile host="app.diagrams.net" agent="Mozilla/5.0 (Windows NT 10.0; Win64; x64) AppleWebKit/537.36 (KHTML, like Gecko) Chrome/128.0.0.0 Safari/537.36 OPR/114.0.0.0" version="26.0.5">
  <diagram name="PÃ¡gina-1" id="f5kyluO1sYbQjqL5ZlTs">
    <mxGraphModel dx="1843" dy="1708" grid="1" gridSize="10" guides="1" tooltips="1" connect="1" arrows="1" fold="1" page="1" pageScale="1" pageWidth="827" pageHeight="1169" math="0" shadow="0">
      <root>
        <mxCell id="0" />
        <mxCell id="1" parent="0" />
        <mxCell id="4eFWKnaFB8buDnzBQv4a-1" value="Proveedor" style="whiteSpace=wrap;html=1;align=center;fillColor=light-dark(#e1d5e7, #1a935b);strokeColor=light-dark(#9673A6,#B2E5FF);" vertex="1" parent="1">
          <mxGeometry x="600" y="-40" width="100" height="40" as="geometry" />
        </mxCell>
        <mxCell id="4eFWKnaFB8buDnzBQv4a-2" value="Categorias" style="whiteSpace=wrap;html=1;align=center;fillColor=light-dark(#e1d5e7, #1a935b);strokeColor=light-dark(#9673A6,#B2E5FF);" vertex="1" parent="1">
          <mxGeometry x="320" width="100" height="40" as="geometry" />
        </mxCell>
        <mxCell id="4eFWKnaFB8buDnzBQv4a-3" value="Inventario" style="whiteSpace=wrap;html=1;align=center;fillColor=light-dark(#e1d5e7, #1a935b);strokeColor=light-dark(#9673A6,#B2E5FF);" vertex="1" parent="1">
          <mxGeometry x="430" y="15" width="100" height="40" as="geometry" />
        </mxCell>
        <mxCell id="4eFWKnaFB8buDnzBQv4a-4" value="Productos" style="whiteSpace=wrap;html=1;align=center;fillColor=light-dark(#e1d5e7, #1a935b);strokeColor=light-dark(#9673A6,#B2E5FF);" vertex="1" parent="1">
          <mxGeometry x="270" y="-70" width="100" height="40" as="geometry" />
        </mxCell>
        <mxCell id="4eFWKnaFB8buDnzBQv4a-5" value="Detalles de Ventas" style="whiteSpace=wrap;html=1;align=center;fillColor=light-dark(#e1d5e7, #1a935b);strokeColor=light-dark(#9673A6,#B2E5FF);" vertex="1" parent="1">
          <mxGeometry x="550" y="30" width="100" height="40" as="geometry" />
        </mxCell>
        <mxCell id="4eFWKnaFB8buDnzBQv4a-6" value="Ventas" style="whiteSpace=wrap;html=1;align=center;fillColor=light-dark(#e1d5e7, #1a935b);strokeColor=light-dark(#9673A6,#B2E5FF);" vertex="1" parent="1">
          <mxGeometry x="414" y="250" width="100" height="40" as="geometry" />
        </mxCell>
        <mxCell id="4eFWKnaFB8buDnzBQv4a-7" value="Empleados" style="whiteSpace=wrap;html=1;align=center;fillColor=light-dark(#e1d5e7, #1a935b);strokeColor=light-dark(#9673A6,#B2E5FF);" vertex="1" parent="1">
          <mxGeometry x="40" y="250" width="100" height="40" as="geometry" />
        </mxCell>
        <mxCell id="4eFWKnaFB8buDnzBQv4a-8" value="Cliente" style="whiteSpace=wrap;html=1;align=center;fillColor=light-dark(#e1d5e7, #1a935b);strokeColor=light-dark(#9673A6,#B2E5FF);" vertex="1" parent="1">
          <mxGeometry x="370" y="-140" width="100" height="40" as="geometry" />
        </mxCell>
        <mxCell id="4eFWKnaFB8buDnzBQv4a-67" style="edgeStyle=orthogonalEdgeStyle;rounded=0;orthogonalLoop=1;jettySize=auto;html=1;endArrow=none;endFill=0;" edge="1" parent="1" source="4eFWKnaFB8buDnzBQv4a-9" target="4eFWKnaFB8buDnzBQv4a-15">
          <mxGeometry relative="1" as="geometry" />
        </mxCell>
        <mxCell id="4eFWKnaFB8buDnzBQv4a-9" value="Territorio" style="whiteSpace=wrap;html=1;align=center;fillColor=light-dark(#e1d5e7, #1a935b);strokeColor=light-dark(#9673A6,#B2E5FF);" vertex="1" parent="1">
          <mxGeometry x="-280" y="440" width="100" height="40" as="geometry" />
        </mxCell>
        <mxCell id="4eFWKnaFB8buDnzBQv4a-79" style="edgeStyle=orthogonalEdgeStyle;rounded=0;orthogonalLoop=1;jettySize=auto;html=1;entryX=0;entryY=0.5;entryDx=0;entryDy=0;endArrow=none;endFill=0;" edge="1" parent="1" source="4eFWKnaFB8buDnzBQv4a-10" target="4eFWKnaFB8buDnzBQv4a-13">
          <mxGeometry relative="1" as="geometry" />
        </mxCell>
        <mxCell id="4eFWKnaFB8buDnzBQv4a-10" value="Region" style="whiteSpace=wrap;html=1;align=center;fillColor=light-dark(#e1d5e7, #1a935b);strokeColor=light-dark(#9673A6,#B2E5FF);" vertex="1" parent="1">
          <mxGeometry x="-280" y="250" width="100" height="40" as="geometry" />
        </mxCell>
        <mxCell id="4eFWKnaFB8buDnzBQv4a-11" value="posee" style="shape=rhombus;perimeter=rhombusPerimeter;whiteSpace=wrap;html=1;align=center;" vertex="1" parent="1">
          <mxGeometry x="470" y="-255" width="100" height="30" as="geometry" />
        </mxCell>
        <mxCell id="4eFWKnaFB8buDnzBQv4a-86" style="edgeStyle=orthogonalEdgeStyle;rounded=0;orthogonalLoop=1;jettySize=auto;html=1;entryX=1;entryY=0.5;entryDx=0;entryDy=0;endArrow=none;endFill=0;" edge="1" parent="1" source="4eFWKnaFB8buDnzBQv4a-12" target="4eFWKnaFB8buDnzBQv4a-7">
          <mxGeometry relative="1" as="geometry" />
        </mxCell>
        <mxCell id="4eFWKnaFB8buDnzBQv4a-87" style="edgeStyle=orthogonalEdgeStyle;rounded=0;orthogonalLoop=1;jettySize=auto;html=1;entryX=0;entryY=0.5;entryDx=0;entryDy=0;endArrow=none;endFill=0;" edge="1" parent="1" source="4eFWKnaFB8buDnzBQv4a-12" target="4eFWKnaFB8buDnzBQv4a-6">
          <mxGeometry relative="1" as="geometry" />
        </mxCell>
        <mxCell id="4eFWKnaFB8buDnzBQv4a-12" value="tiene" style="shape=rhombus;perimeter=rhombusPerimeter;whiteSpace=wrap;html=1;align=center;" vertex="1" parent="1">
          <mxGeometry x="220" y="255" width="100" height="30" as="geometry" />
        </mxCell>
        <mxCell id="4eFWKnaFB8buDnzBQv4a-13" value="posee" style="shape=rhombus;perimeter=rhombusPerimeter;whiteSpace=wrap;html=1;align=center;" vertex="1" parent="1">
          <mxGeometry x="-120" y="255" width="100" height="30" as="geometry" />
        </mxCell>
        <mxCell id="4eFWKnaFB8buDnzBQv4a-14" value="pertenece" style="shape=rhombus;perimeter=rhombusPerimeter;whiteSpace=wrap;html=1;align=center;" vertex="1" parent="1">
          <mxGeometry x="570" y="-100" width="100" height="30" as="geometry" />
        </mxCell>
        <mxCell id="4eFWKnaFB8buDnzBQv4a-68" style="edgeStyle=orthogonalEdgeStyle;rounded=0;orthogonalLoop=1;jettySize=auto;html=1;entryX=0.5;entryY=1;entryDx=0;entryDy=0;endArrow=none;endFill=0;" edge="1" parent="1" source="4eFWKnaFB8buDnzBQv4a-15" target="4eFWKnaFB8buDnzBQv4a-10">
          <mxGeometry relative="1" as="geometry" />
        </mxCell>
        <mxCell id="4eFWKnaFB8buDnzBQv4a-15" value="tiene" style="shape=rhombus;perimeter=rhombusPerimeter;whiteSpace=wrap;html=1;align=center;" vertex="1" parent="1">
          <mxGeometry x="-280" y="350" width="100" height="30" as="geometry" />
        </mxCell>
        <mxCell id="4eFWKnaFB8buDnzBQv4a-16" value="posee" style="shape=rhombus;perimeter=rhombusPerimeter;whiteSpace=wrap;html=1;align=center;" vertex="1" parent="1">
          <mxGeometry x="570" y="-200" width="100" height="30" as="geometry" />
        </mxCell>
        <mxCell id="4eFWKnaFB8buDnzBQv4a-17" value="pertenece" style="shape=rhombus;perimeter=rhombusPerimeter;whiteSpace=wrap;html=1;align=center;" vertex="1" parent="1">
          <mxGeometry x="440" y="-90" width="100" height="30" as="geometry" />
        </mxCell>
        <mxCell id="4eFWKnaFB8buDnzBQv4a-18" value="tiene" style="shape=rhombus;perimeter=rhombusPerimeter;whiteSpace=wrap;html=1;align=center;" vertex="1" parent="1">
          <mxGeometry x="590" y="-140" width="100" height="30" as="geometry" />
        </mxCell>
        <mxCell id="4eFWKnaFB8buDnzBQv4a-19" value="Pertenece" style="shape=rhombus;perimeter=rhombusPerimeter;whiteSpace=wrap;html=1;align=center;" vertex="1" parent="1">
          <mxGeometry x="530" y="-320" width="100" height="30" as="geometry" />
        </mxCell>
        <mxCell id="4eFWKnaFB8buDnzBQv4a-20" value="tipo cliente" style="ellipse;whiteSpace=wrap;html=1;align=center;fillColor=#dae8fc;strokeColor=#6c8ebf;" vertex="1" parent="1">
          <mxGeometry x="760" y="70" width="100" height="40" as="geometry" />
        </mxCell>
        <mxCell id="4eFWKnaFB8buDnzBQv4a-78" style="edgeStyle=orthogonalEdgeStyle;rounded=0;orthogonalLoop=1;jettySize=auto;html=1;endArrow=none;endFill=0;" edge="1" parent="1" source="4eFWKnaFB8buDnzBQv4a-22" target="4eFWKnaFB8buDnzBQv4a-10">
          <mxGeometry relative="1" as="geometry" />
        </mxCell>
        <mxCell id="4eFWKnaFB8buDnzBQv4a-22" value="nombre" style="ellipse;whiteSpace=wrap;html=1;align=center;fillColor=#dae8fc;strokeColor=#6c8ebf;" vertex="1" parent="1">
          <mxGeometry x="-230" y="130" width="100" height="40" as="geometry" />
        </mxCell>
        <mxCell id="4eFWKnaFB8buDnzBQv4a-23" value="nombre" style="ellipse;whiteSpace=wrap;html=1;align=center;fillColor=#dae8fc;strokeColor=#6c8ebf;" vertex="1" parent="1">
          <mxGeometry x="60" y="110" width="100" height="40" as="geometry" />
        </mxCell>
        <mxCell id="4eFWKnaFB8buDnzBQv4a-24" value="descripcion" style="ellipse;whiteSpace=wrap;html=1;align=center;fillColor=#dae8fc;strokeColor=#6c8ebf;" vertex="1" parent="1">
          <mxGeometry x="870" y="150" width="100" height="40" as="geometry" />
        </mxCell>
        <mxCell id="4eFWKnaFB8buDnzBQv4a-25" value="nombre" style="ellipse;whiteSpace=wrap;html=1;align=center;fillColor=#dae8fc;strokeColor=#6c8ebf;" vertex="1" parent="1">
          <mxGeometry x="990" y="10" width="100" height="40" as="geometry" />
        </mxCell>
        <mxCell id="4eFWKnaFB8buDnzBQv4a-80" style="edgeStyle=orthogonalEdgeStyle;rounded=0;orthogonalLoop=1;jettySize=auto;html=1;endArrow=none;endFill=0;" edge="1" parent="1">
          <mxGeometry relative="1" as="geometry">
            <mxPoint x="108.99" y="200" as="targetPoint" />
            <mxPoint x="238.98999999999978" y="150" as="sourcePoint" />
            <Array as="points">
              <mxPoint x="240" y="150" />
              <mxPoint x="240" y="200" />
            </Array>
          </mxGeometry>
        </mxCell>
        <mxCell id="4eFWKnaFB8buDnzBQv4a-26" value="puesto" style="ellipse;whiteSpace=wrap;html=1;align=center;fillColor=#dae8fc;strokeColor=#6c8ebf;" vertex="1" parent="1">
          <mxGeometry x="190" y="110" width="100" height="40" as="geometry" />
        </mxCell>
        <mxCell id="4eFWKnaFB8buDnzBQv4a-27" value="precio en promocion" style="ellipse;whiteSpace=wrap;html=1;align=center;fillColor=#dae8fc;strokeColor=#6c8ebf;" vertex="1" parent="1">
          <mxGeometry x="870" y="250" width="100" height="40" as="geometry" />
        </mxCell>
        <mxCell id="4eFWKnaFB8buDnzBQv4a-74" style="edgeStyle=orthogonalEdgeStyle;rounded=0;orthogonalLoop=1;jettySize=auto;html=1;entryX=0.5;entryY=1;entryDx=0;entryDy=0;endArrow=none;endFill=0;" edge="1" parent="1" source="4eFWKnaFB8buDnzBQv4a-28" target="4eFWKnaFB8buDnzBQv4a-9">
          <mxGeometry relative="1" as="geometry" />
        </mxCell>
        <mxCell id="4eFWKnaFB8buDnzBQv4a-28" value="nombre" style="ellipse;whiteSpace=wrap;html=1;align=center;fillColor=#dae8fc;strokeColor=#6c8ebf;" vertex="1" parent="1">
          <mxGeometry x="-330" y="530" width="100" height="40" as="geometry" />
        </mxCell>
        <mxCell id="4eFWKnaFB8buDnzBQv4a-100" style="edgeStyle=orthogonalEdgeStyle;rounded=0;orthogonalLoop=1;jettySize=auto;html=1;endArrow=none;endFill=0;" edge="1" parent="1" source="4eFWKnaFB8buDnzBQv4a-29" target="4eFWKnaFB8buDnzBQv4a-6">
          <mxGeometry relative="1" as="geometry" />
        </mxCell>
        <mxCell id="4eFWKnaFB8buDnzBQv4a-29" value="fecha" style="ellipse;whiteSpace=wrap;html=1;align=center;fillColor=#dae8fc;strokeColor=#6c8ebf;" vertex="1" parent="1">
          <mxGeometry x="414" y="80" width="100" height="40" as="geometry" />
        </mxCell>
        <mxCell id="4eFWKnaFB8buDnzBQv4a-30" value="cantidad" style="ellipse;whiteSpace=wrap;html=1;align=center;fillColor=#dae8fc;strokeColor=#6c8ebf;" vertex="1" parent="1">
          <mxGeometry x="980" y="70" width="100" height="40" as="geometry" />
        </mxCell>
        <mxCell id="4eFWKnaFB8buDnzBQv4a-31" value="email" style="ellipse;whiteSpace=wrap;html=1;align=center;fillColor=#dae8fc;strokeColor=#6c8ebf;" vertex="1" parent="1">
          <mxGeometry x="760" y="10" width="100" height="40" as="geometry" />
        </mxCell>
        <mxCell id="4eFWKnaFB8buDnzBQv4a-32" value="precio" style="ellipse;whiteSpace=wrap;html=1;align=center;fillColor=#dae8fc;strokeColor=#6c8ebf;" vertex="1" parent="1">
          <mxGeometry x="870" y="195" width="100" height="40" as="geometry" />
        </mxCell>
        <mxCell id="4eFWKnaFB8buDnzBQv4a-33" value="nombre" style="ellipse;whiteSpace=wrap;html=1;align=center;fillColor=#dae8fc;strokeColor=#6c8ebf;" vertex="1" parent="1">
          <mxGeometry x="880" y="355" width="100" height="40" as="geometry" />
        </mxCell>
        <mxCell id="4eFWKnaFB8buDnzBQv4a-34" value="cantidad" style="ellipse;whiteSpace=wrap;html=1;align=center;fillColor=#dae8fc;strokeColor=#6c8ebf;" vertex="1" parent="1">
          <mxGeometry x="970" y="130" width="100" height="40" as="geometry" />
        </mxCell>
        <mxCell id="4eFWKnaFB8buDnzBQv4a-36" value="nombre" style="ellipse;whiteSpace=wrap;html=1;align=center;fillColor=#dae8fc;strokeColor=#6c8ebf;" vertex="1" parent="1">
          <mxGeometry x="970" y="195" width="100" height="40" as="geometry" />
        </mxCell>
        <mxCell id="4eFWKnaFB8buDnzBQv4a-102" style="edgeStyle=orthogonalEdgeStyle;rounded=0;orthogonalLoop=1;jettySize=auto;html=1;endArrow=none;endFill=0;" edge="1" parent="1" source="4eFWKnaFB8buDnzBQv4a-37">
          <mxGeometry relative="1" as="geometry">
            <mxPoint x="180" y="200" as="targetPoint" />
            <Array as="points">
              <mxPoint x="180" y="140" />
              <mxPoint x="181" y="140" />
              <mxPoint x="181" y="200" />
            </Array>
          </mxGeometry>
        </mxCell>
        <mxCell id="4eFWKnaFB8buDnzBQv4a-37" value="fecha de ingreso" style="ellipse;whiteSpace=wrap;html=1;align=center;fillColor=#dae8fc;strokeColor=#6c8ebf;" vertex="1" parent="1">
          <mxGeometry x="130" y="40" width="100" height="40" as="geometry" />
        </mxCell>
        <mxCell id="4eFWKnaFB8buDnzBQv4a-40" value="nombre" style="ellipse;whiteSpace=wrap;html=1;align=center;fillColor=#dae8fc;strokeColor=#6c8ebf;" vertex="1" parent="1">
          <mxGeometry x="760" y="330" width="100" height="40" as="geometry" />
        </mxCell>
        <mxCell id="4eFWKnaFB8buDnzBQv4a-43" value="cantidad" style="ellipse;whiteSpace=wrap;html=1;align=center;fillColor=#dae8fc;strokeColor=#6c8ebf;" vertex="1" parent="1">
          <mxGeometry x="870" y="300" width="100" height="40" as="geometry" />
        </mxCell>
        <mxCell id="4eFWKnaFB8buDnzBQv4a-44" value="direccion" style="ellipse;shape=doubleEllipse;margin=3;whiteSpace=wrap;html=1;align=center;fillColor=#d5e8d4;strokeColor=#82b366;" vertex="1" parent="1">
          <mxGeometry x="1020" y="240" width="100" height="40" as="geometry" />
        </mxCell>
        <mxCell id="4eFWKnaFB8buDnzBQv4a-45" value="contacto" style="ellipse;shape=doubleEllipse;margin=3;whiteSpace=wrap;html=1;align=center;fillColor=#d5e8d4;strokeColor=#82b366;" vertex="1" parent="1">
          <mxGeometry x="1020" y="290" width="100" height="40" as="geometry" />
        </mxCell>
        <mxCell id="4eFWKnaFB8buDnzBQv4a-46" value="direccion" style="ellipse;shape=doubleEllipse;margin=3;whiteSpace=wrap;html=1;align=center;fillColor=#d5e8d4;strokeColor=#82b366;" vertex="1" parent="1">
          <mxGeometry x="760" y="160" width="100" height="40" as="geometry" />
        </mxCell>
        <mxCell id="4eFWKnaFB8buDnzBQv4a-47" value="contacto" style="ellipse;shape=doubleEllipse;margin=3;whiteSpace=wrap;html=1;align=center;fillColor=#d5e8d4;strokeColor=#82b366;" vertex="1" parent="1">
          <mxGeometry x="770" y="210" width="100" height="40" as="geometry" />
        </mxCell>
        <mxCell id="4eFWKnaFB8buDnzBQv4a-48" value="Attribute" style="ellipse;whiteSpace=wrap;html=1;align=center;fontStyle=4;fillColor=#f5f5f5;strokeColor=#666666;fontColor=#333333;" vertex="1" parent="1">
          <mxGeometry x="440" y="470" width="100" height="40" as="geometry" />
        </mxCell>
        <mxCell id="4eFWKnaFB8buDnzBQv4a-49" value="Attribute" style="ellipse;whiteSpace=wrap;html=1;align=center;fontStyle=4;fillColor=#f5f5f5;strokeColor=#666666;fontColor=#333333;" vertex="1" parent="1">
          <mxGeometry x="450" y="480" width="100" height="40" as="geometry" />
        </mxCell>
        <mxCell id="4eFWKnaFB8buDnzBQv4a-50" value="Attribute" style="ellipse;whiteSpace=wrap;html=1;align=center;fontStyle=4;fillColor=#f5f5f5;strokeColor=#666666;fontColor=#333333;" vertex="1" parent="1">
          <mxGeometry x="460" y="490" width="100" height="40" as="geometry" />
        </mxCell>
        <mxCell id="4eFWKnaFB8buDnzBQv4a-51" value="Attribute" style="ellipse;whiteSpace=wrap;html=1;align=center;fontStyle=4;fillColor=#f5f5f5;strokeColor=#666666;fontColor=#333333;" vertex="1" parent="1">
          <mxGeometry x="470" y="500" width="100" height="40" as="geometry" />
        </mxCell>
        <mxCell id="4eFWKnaFB8buDnzBQv4a-52" value="Attribute" style="ellipse;whiteSpace=wrap;html=1;align=center;fontStyle=4;fillColor=#f5f5f5;strokeColor=#666666;fontColor=#333333;" vertex="1" parent="1">
          <mxGeometry x="480" y="510" width="100" height="40" as="geometry" />
        </mxCell>
        <mxCell id="4eFWKnaFB8buDnzBQv4a-53" value="Attribute" style="ellipse;whiteSpace=wrap;html=1;align=center;fontStyle=4;fillColor=#f5f5f5;strokeColor=#666666;fontColor=#333333;" vertex="1" parent="1">
          <mxGeometry x="490" y="520" width="100" height="40" as="geometry" />
        </mxCell>
        <mxCell id="4eFWKnaFB8buDnzBQv4a-97" style="edgeStyle=orthogonalEdgeStyle;rounded=0;orthogonalLoop=1;jettySize=auto;html=1;endArrow=none;endFill=0;" edge="1" parent="1" source="4eFWKnaFB8buDnzBQv4a-54">
          <mxGeometry relative="1" as="geometry">
            <mxPoint x="450" y="205" as="targetPoint" />
          </mxGeometry>
        </mxCell>
        <mxCell id="4eFWKnaFB8buDnzBQv4a-54" value="IDventas" style="ellipse;whiteSpace=wrap;html=1;align=center;fontStyle=4;fillColor=#f5f5f5;strokeColor=#666666;fontColor=#333333;" vertex="1" parent="1">
          <mxGeometry x="520" y="185" width="100" height="40" as="geometry" />
        </mxCell>
        <mxCell id="4eFWKnaFB8buDnzBQv4a-75" style="edgeStyle=orthogonalEdgeStyle;rounded=0;orthogonalLoop=1;jettySize=auto;html=1;endArrow=none;endFill=0;" edge="1" parent="1" source="4eFWKnaFB8buDnzBQv4a-55">
          <mxGeometry relative="1" as="geometry">
            <mxPoint x="-280" y="510" as="targetPoint" />
          </mxGeometry>
        </mxCell>
        <mxCell id="4eFWKnaFB8buDnzBQv4a-55" value="IDterritorio" style="ellipse;whiteSpace=wrap;html=1;align=center;fontStyle=4;fillColor=#f5f5f5;strokeColor=#666666;fontColor=#333333;" vertex="1" parent="1">
          <mxGeometry x="-450" y="490" width="100" height="40" as="geometry" />
        </mxCell>
        <mxCell id="4eFWKnaFB8buDnzBQv4a-77" style="edgeStyle=orthogonalEdgeStyle;rounded=0;orthogonalLoop=1;jettySize=auto;html=1;endArrow=none;endFill=0;" edge="1" parent="1" source="4eFWKnaFB8buDnzBQv4a-56" target="4eFWKnaFB8buDnzBQv4a-10">
          <mxGeometry relative="1" as="geometry" />
        </mxCell>
        <mxCell id="4eFWKnaFB8buDnzBQv4a-56" value="IDregion" style="ellipse;whiteSpace=wrap;html=1;align=center;fontStyle=4;fillColor=#f5f5f5;strokeColor=#666666;fontColor=#333333;" vertex="1" parent="1">
          <mxGeometry x="-350" y="130" width="100" height="40" as="geometry" />
        </mxCell>
        <mxCell id="4eFWKnaFB8buDnzBQv4a-101" style="edgeStyle=orthogonalEdgeStyle;rounded=0;orthogonalLoop=1;jettySize=auto;html=1;endArrow=none;endFill=0;" edge="1" parent="1" source="4eFWKnaFB8buDnzBQv4a-57">
          <mxGeometry relative="1" as="geometry">
            <mxPoint x="50" y="200" as="targetPoint" />
          </mxGeometry>
        </mxCell>
        <mxCell id="4eFWKnaFB8buDnzBQv4a-57" value="IDempleado" style="ellipse;whiteSpace=wrap;html=1;align=center;fontStyle=4;fillColor=#f5f5f5;strokeColor=#666666;fontColor=#333333;" vertex="1" parent="1">
          <mxGeometry y="30" width="100" height="40" as="geometry" />
        </mxCell>
        <mxCell id="4eFWKnaFB8buDnzBQv4a-99" style="edgeStyle=orthogonalEdgeStyle;rounded=0;orthogonalLoop=1;jettySize=auto;html=1;endArrow=none;endFill=0;" edge="1" parent="1" source="4eFWKnaFB8buDnzBQv4a-58" target="4eFWKnaFB8buDnzBQv4a-6">
          <mxGeometry relative="1" as="geometry" />
        </mxCell>
        <mxCell id="4eFWKnaFB8buDnzBQv4a-58" value="&lt;span style=&quot;border-bottom: 1px dotted&quot;&gt;IDclientes&lt;/span&gt;" style="ellipse;whiteSpace=wrap;html=1;align=center;fillColor=#ffe6cc;strokeColor=#d79b00;" vertex="1" parent="1">
          <mxGeometry x="300" y="130" width="100" height="40" as="geometry" />
        </mxCell>
        <mxCell id="4eFWKnaFB8buDnzBQv4a-59" value="&lt;span style=&quot;border-bottom: 1px dotted&quot;&gt;Attribute&lt;/span&gt;" style="ellipse;whiteSpace=wrap;html=1;align=center;fillColor=#ffe6cc;strokeColor=#d79b00;" vertex="1" parent="1">
          <mxGeometry x="60" y="590" width="100" height="40" as="geometry" />
        </mxCell>
        <mxCell id="4eFWKnaFB8buDnzBQv4a-60" value="&lt;span style=&quot;border-bottom: 1px dotted&quot;&gt;Attribute&lt;/span&gt;" style="ellipse;whiteSpace=wrap;html=1;align=center;fillColor=#ffe6cc;strokeColor=#d79b00;" vertex="1" parent="1">
          <mxGeometry x="70" y="600" width="100" height="40" as="geometry" />
        </mxCell>
        <mxCell id="4eFWKnaFB8buDnzBQv4a-61" value="&lt;span style=&quot;border-bottom: 1px dotted&quot;&gt;Attribute&lt;/span&gt;" style="ellipse;whiteSpace=wrap;html=1;align=center;fillColor=#ffe6cc;strokeColor=#d79b00;" vertex="1" parent="1">
          <mxGeometry x="80" y="610" width="100" height="40" as="geometry" />
        </mxCell>
        <mxCell id="4eFWKnaFB8buDnzBQv4a-62" value="&lt;span style=&quot;border-bottom: 1px dotted&quot;&gt;Attribute&lt;/span&gt;" style="ellipse;whiteSpace=wrap;html=1;align=center;fillColor=#ffe6cc;strokeColor=#d79b00;" vertex="1" parent="1">
          <mxGeometry x="90" y="620" width="100" height="40" as="geometry" />
        </mxCell>
        <mxCell id="4eFWKnaFB8buDnzBQv4a-63" value="&lt;span style=&quot;border-bottom: 1px dotted&quot;&gt;IDregion&lt;/span&gt;" style="ellipse;whiteSpace=wrap;html=1;align=center;fillColor=#ffe6cc;strokeColor=#d79b00;" vertex="1" parent="1">
          <mxGeometry x="-60" y="110" width="100" height="40" as="geometry" />
        </mxCell>
        <mxCell id="4eFWKnaFB8buDnzBQv4a-98" style="edgeStyle=orthogonalEdgeStyle;rounded=0;orthogonalLoop=1;jettySize=auto;html=1;endArrow=none;endFill=0;" edge="1" parent="1" source="4eFWKnaFB8buDnzBQv4a-64" target="4eFWKnaFB8buDnzBQv4a-6">
          <mxGeometry relative="1" as="geometry" />
        </mxCell>
        <mxCell id="4eFWKnaFB8buDnzBQv4a-64" value="&lt;span style=&quot;border-bottom: 1px dotted&quot;&gt;IDempleados&lt;/span&gt;" style="ellipse;whiteSpace=wrap;html=1;align=center;fillColor=#ffe6cc;strokeColor=#d79b00;" vertex="1" parent="1">
          <mxGeometry x="520" y="130" width="100" height="40" as="geometry" />
        </mxCell>
        <mxCell id="4eFWKnaFB8buDnzBQv4a-76" style="edgeStyle=orthogonalEdgeStyle;rounded=0;orthogonalLoop=1;jettySize=auto;html=1;endArrow=none;endFill=0;" edge="1" parent="1" source="4eFWKnaFB8buDnzBQv4a-65">
          <mxGeometry relative="1" as="geometry">
            <mxPoint x="-230" y="480" as="targetPoint" />
          </mxGeometry>
        </mxCell>
        <mxCell id="4eFWKnaFB8buDnzBQv4a-65" value="IDregion" style="ellipse;whiteSpace=wrap;html=1;align=center;fillColor=#ffe6cc;strokeColor=#d79b00;" vertex="1" parent="1">
          <mxGeometry x="-180" y="510" width="100" height="40" as="geometry" />
        </mxCell>
        <mxCell id="4eFWKnaFB8buDnzBQv4a-95" style="edgeStyle=orthogonalEdgeStyle;rounded=0;orthogonalLoop=1;jettySize=auto;html=1;endArrow=none;endFill=0;" edge="1" parent="1" source="4eFWKnaFB8buDnzBQv4a-66">
          <mxGeometry relative="1" as="geometry">
            <mxPoint x="460" y="205" as="targetPoint" />
          </mxGeometry>
        </mxCell>
        <mxCell id="4eFWKnaFB8buDnzBQv4a-66" value="total" style="ellipse;whiteSpace=wrap;html=1;align=center;dashed=1;" vertex="1" parent="1">
          <mxGeometry x="300" y="185" width="100" height="40" as="geometry" />
        </mxCell>
        <mxCell id="4eFWKnaFB8buDnzBQv4a-71" value="1:M" style="text;html=1;align=center;verticalAlign=middle;resizable=0;points=[];autosize=1;strokeColor=none;fillColor=none;" vertex="1" parent="1">
          <mxGeometry x="-180" y="350" width="40" height="30" as="geometry" />
        </mxCell>
        <mxCell id="4eFWKnaFB8buDnzBQv4a-72" value="1:1" style="text;html=1;align=center;verticalAlign=middle;resizable=0;points=[];autosize=1;strokeColor=none;fillColor=none;" vertex="1" parent="1">
          <mxGeometry x="-230" y="288" width="40" height="30" as="geometry" />
        </mxCell>
        <mxCell id="4eFWKnaFB8buDnzBQv4a-73" value="1:1" style="text;html=1;align=center;verticalAlign=middle;resizable=0;points=[];autosize=1;strokeColor=none;fillColor=none;" vertex="1" parent="1">
          <mxGeometry x="-230" y="410" width="40" height="30" as="geometry" />
        </mxCell>
        <mxCell id="4eFWKnaFB8buDnzBQv4a-82" style="edgeStyle=orthogonalEdgeStyle;rounded=0;orthogonalLoop=1;jettySize=auto;html=1;entryX=0.612;entryY=0.108;entryDx=0;entryDy=0;entryPerimeter=0;endArrow=none;endFill=0;" edge="1" parent="1" source="4eFWKnaFB8buDnzBQv4a-23" target="4eFWKnaFB8buDnzBQv4a-7">
          <mxGeometry relative="1" as="geometry" />
        </mxCell>
        <mxCell id="4eFWKnaFB8buDnzBQv4a-83" style="edgeStyle=orthogonalEdgeStyle;rounded=0;orthogonalLoop=1;jettySize=auto;html=1;entryX=0.621;entryY=-0.001;entryDx=0;entryDy=0;entryPerimeter=0;endArrow=none;endFill=0;" edge="1" parent="1" source="4eFWKnaFB8buDnzBQv4a-63" target="4eFWKnaFB8buDnzBQv4a-7">
          <mxGeometry relative="1" as="geometry" />
        </mxCell>
        <mxCell id="4eFWKnaFB8buDnzBQv4a-84" style="edgeStyle=orthogonalEdgeStyle;rounded=0;orthogonalLoop=1;jettySize=auto;html=1;entryX=0.912;entryY=0.499;entryDx=0;entryDy=0;entryPerimeter=0;endArrow=none;endFill=0;" edge="1" parent="1" source="4eFWKnaFB8buDnzBQv4a-7" target="4eFWKnaFB8buDnzBQv4a-13">
          <mxGeometry relative="1" as="geometry" />
        </mxCell>
        <mxCell id="4eFWKnaFB8buDnzBQv4a-88" value="1:M" style="text;html=1;align=center;verticalAlign=middle;resizable=0;points=[];autosize=1;strokeColor=none;fillColor=none;" vertex="1" parent="1">
          <mxGeometry x="-90" y="225" width="40" height="30" as="geometry" />
        </mxCell>
        <mxCell id="4eFWKnaFB8buDnzBQv4a-90" value="1:1" style="text;html=1;align=center;verticalAlign=middle;resizable=0;points=[];autosize=1;strokeColor=none;fillColor=none;" vertex="1" parent="1">
          <mxGeometry x="-180" y="245" width="40" height="30" as="geometry" />
        </mxCell>
        <mxCell id="4eFWKnaFB8buDnzBQv4a-91" value="0:1" style="text;html=1;align=center;verticalAlign=middle;resizable=0;points=[];autosize=1;strokeColor=none;fillColor=none;" vertex="1" parent="1">
          <mxGeometry y="245" width="40" height="30" as="geometry" />
        </mxCell>
        <mxCell id="4eFWKnaFB8buDnzBQv4a-92" value="1:M" style="text;html=1;align=center;verticalAlign=middle;resizable=0;points=[];autosize=1;strokeColor=none;fillColor=none;" vertex="1" parent="1">
          <mxGeometry x="250" y="225" width="40" height="30" as="geometry" />
        </mxCell>
        <mxCell id="4eFWKnaFB8buDnzBQv4a-93" value="0:1" style="text;html=1;align=center;verticalAlign=middle;resizable=0;points=[];autosize=1;strokeColor=none;fillColor=none;" vertex="1" parent="1">
          <mxGeometry x="140" y="245" width="40" height="30" as="geometry" />
        </mxCell>
        <mxCell id="4eFWKnaFB8buDnzBQv4a-94" value="1:1" style="text;html=1;align=center;verticalAlign=middle;resizable=0;points=[];autosize=1;strokeColor=none;fillColor=none;" vertex="1" parent="1">
          <mxGeometry x="374" y="245" width="40" height="30" as="geometry" />
        </mxCell>
      </root>
    </mxGraphModel>
  </diagram>
</mxfile>
